<svg width="153" height="128" viewBox="0 0 153 128" fill="none" xmlns="http://www.w3.org/2000/svg">
<path d="M17.6894 72.9468C22.2536 54.4564 9.13154 42.2479 2 38.455C49.6387 31.0588 52.7528 65.8746 48.355 84.207C45.4073 100.232 51.168 111.192 54.4168 114.669C52.42 94.1871 55.6908 83.4013 57.9826 79.703C64.6741 66.5038 82.626 57.6171 92.3328 54.5749C101.535 50.4924 102.873 36.8115 103.712 28.2292L103.743 27.906C105.412 15.1855 115.233 10.8774 119.314 10.4823C126.635 3.0861 131.081 1.07902 132.388 1C134.005 2.13787 133.062 10.0872 132.388 13.9196C136.002 15.8161 137.777 19.688 138.212 21.3869C138.212 23.473 138.846 24.9428 139.163 25.4169C140.78 28.8305 144.479 29.9969 148.197 32.173C149.702 33.1261 151.485 34.2275 152 34.7806C151.905 36.4874 149.425 38.0994 148.197 38.6921C146.105 40.0196 140.669 39.2452 138.212 38.6921C134.409 39.4507 132.269 41.2207 131.675 42.0109C136.905 47.7951 137.024 55.5626 136.429 58.7234C135.712 62.5402 129.021 75.2384 125.138 81.4809C124.567 82.3343 124.9 89.1852 125.138 92.504C125.803 99.5209 131.12 109.414 133.696 113.484C135.914 117.196 138.331 118.857 139.639 119.173C140.399 119.457 144.076 119.687 145.819 119.766C150.747 121.577 149.108 125.613 146.889 126.996H132.388C127.254 124.72 115.748 106.53 110.637 97.7193C108.926 113.081 95.3439 118.027 88.767 118.58L97.9192 121.069C105.811 124.009 100.891 126.996 97.206 126.996H66.1838C45.2001 127.089 38.7507 125.584 37.2468 125.233L37.1823 125.218C10.2726 118.96 12.9746 87.7629 17.6894 72.9468Z" fill="#FC782E" stroke="#FC782E"/>
</svg>
